<?xml version="1.0" encoding="utf-8"?>
<!-- Generator: Adobe Illustrator 24.1.1, SVG Export Plug-In . SVG Version: 6.00 Build 0)  -->
<svg version="1.1" id="Capa_1" xmlns="http://www.w3.org/2000/svg" xmlns:xlink="http://www.w3.org/1999/xlink" x="0px" y="0px"
	 viewBox="0 0 1024 1024" style="enable-background:new 0 0 1024 1024;" xml:space="preserve">
<style type="text/css">
	.st0{fill:url(#SVGID_1_);}
	.st1{fill:#FFFFFF;}
	.st2{opacity:0.32;}
</style>
<g>
	<linearGradient id="SVGID_1_" gradientUnits="userSpaceOnUse" x1="0" y1="512" x2="1024" y2="512">
		<stop  offset="0" style="stop-color:#00A99D"/>
		<stop  offset="1" style="stop-color:#29ABE2"/>
	</linearGradient>
	<path class="st0" d="M826.2,1024H197.8C88.6,1024,0,935.4,0,826.2V197.8C0,88.6,88.6,0,197.8,0h628.4C935.4,0,1024,88.6,1024,197.8
		v628.4C1024,935.4,935.4,1024,826.2,1024z"/>
</g>
<g>
	<g>
		<g>
			<path class="st1" d="M123.8,368.3c6.5,0,11.7-5.2,11.7-11.7V215.2c0-15,12.2-27.3,27.3-27.3h364c15.1,0,27.3,12.3,27.3,27.3V249
				c0,6.5,5.2,11.7,11.7,11.7c6.5,0,11.7-5.2,11.7-11.7v-33.8c0-28-22.8-50.8-50.8-50.8h-364c-28,0-50.8,22.8-50.8,50.8v141.4
				C112,363.1,117.3,368.3,123.8,368.3z"/>
			<path class="st1" d="M900.2,637.1c6.5,0,11.7-5.2,11.7-11.7V477.2c0-28-22.8-50.8-50.8-50.8H577.6V303.7
				c0-6.5-5.2-11.7-11.7-11.7c-6.5,0-11.7,5.2-11.7,11.7v122.8h-33.8c-38.8,0-70.7,30-73.7,68H316c-12.6,0-24.5,4.9-33.4,13.9
				L217,573.8c-0.5,0.5-1.5,0.1-1.5-0.6V524c0-16.3-13.2-29.5-29.5-29.5h-23.2c-15.1,0-27.3-12.3-27.3-27.3v-55.7
				c0-6.5-5.2-11.7-11.7-11.7c-6.5,0-11.7,5.2-11.7,11.7v55.7c0,28,22.8,50.8,50.8,50.8h23.3c3.4,0,6.1,2.7,6.1,6.1v49.2
				c0,13.4,10.9,24.3,24.3,24.3c6.5,0,12.6-2.5,17.1-7.1l65.5-65.5c4.5-4.5,10.5-7,16.9-7h130.4v211.2c0,28,22.8,50.8,50.8,50.8
				h210.8c6.3,0,12.4,2.5,16.9,7l65.5,65.5c4.6,4.6,10.7,7.1,17.1,7.1c13.4,0,24.3-10.9,24.3-24.3V786c0-3.4,2.7-6.1,6.1-6.1h23.1
				c28,0,50.8-22.8,50.8-50.8v-49.6c0-6.5-5.2-11.7-11.7-11.7c-6.5,0-11.7,5.2-11.7,11.7v49.6c0,15.1-12.3,27.3-27.3,27.3h-23.3
				c-16.3,0-29.5,13.2-29.5,29.5v49.2c0,0.7-0.9,1.1-1.5,0.6l-65.4-65.4c-8.9-8.9-20.8-13.9-33.4-13.9H497.1
				c-15.1,0-27.3-12.3-27.3-27.3V500.4c0-27.9,22.7-50.6,50.6-50.6h340.8c15.1,0,27.3,12.3,27.3,27.3v148.2
				C888.5,631.9,893.7,637.1,900.2,637.1L900.2,637.1z"/>
			<path class="st1" d="M641.6,601.9c-6-2.3-12.8,0.7-15.1,6.8l-31.2,81.9c-2.3,6,0.7,12.8,6.8,15.1c1.4,0.5,2.8,0.8,4.1,0.8
				c4.7,0,9.2-2.9,11-7.5l14.6-38.3h96.5l14.5,38.3c1.8,4.7,6.3,7.6,11,7.6c1.4,0,2.7-0.2,4.1-0.8c6-2.3,9.1-9.1,6.8-15.1
				l-68.1-180.5c-2.5-6.7-9.1-11.3-16.3-11.3l0,0c-7.1,0-13.7,4.5-16.2,11.2l-18.2,47.5c-2.3,6,0.7,12.8,6.8,15.1
				c6,2.3,12.8-0.7,15.1-6.8l12.4-32.6l39.2,103.8h-78.8l7.7-20.1C650.6,611,647.7,604.2,641.6,601.9L641.6,601.9z"/>
			<path class="st1" d="M252,412.3c-6.5,0-11.7,5.2-11.7,11.7s5.2,11.7,11.7,11.7c35.2,0,67.4-13,92.1-34.4
				c24.7,21.5,56.8,34.4,92.1,34.4c6.5,0,11.7-5.2,11.7-11.7s-5.2-11.7-11.7-11.7c-28.8,0-55.3-10.5-75.7-27.9
				c17.7-21.5,29.1-48.2,31.5-77.4h36.2c6.5,0,11.7-5.2,11.7-11.7c0-6.5-5.2-11.7-11.7-11.7h-72.3v-39c0-6.5-5.2-11.7-11.7-11.7
				s-11.7,5.2-11.7,11.7v39H260c-6.5,0-11.7,5.2-11.7,11.7c0,6.5,5.2,11.7,11.7,11.7h36.2c2.4,29.3,13.9,56.1,31.5,77.4
				C307.3,401.8,280.8,412.3,252,412.3L252,412.3z M368.4,307c-2.3,22.6-11,43.4-24.3,60.4c-13.4-17-22.2-37.7-24.3-60.4H368.4z"/>
		</g>
	</g>
</g>
<g class="st2">
	<path class="st1" d="M775.5,70.7c47.5,0,92.1,18.5,125.7,52.1s52.1,78.2,52.1,125.7v527c0,47.5-18.5,92.1-52.1,125.7
		c-33.6,33.6-78.2,52.1-125.7,52.1h-527c-47.5,0-92.1-18.5-125.7-52.1C89.2,867.6,70.7,823,70.7,775.5v-527
		c0-47.5,18.5-92.1,52.1-125.7S201,70.7,248.5,70.7H775.5 M775.5,50.7h-527c-109.2,0-197.8,88.6-197.8,197.8v527
		c0,109.2,88.6,197.8,197.8,197.8h527c109.2,0,197.8-88.6,197.8-197.8v-527C973.3,139.3,884.7,50.7,775.5,50.7L775.5,50.7z"/>
</g>
</svg>
